<svg preserveAspectRatio="none" width="100%" height="100%" overflow="visible" style="display: block;" viewBox="0 0 48 48" fill="none" xmlns="http://www.w3.org/2000/svg">
<g id="surface1">
<path id="Vector" d="M0 14.207C0 6.35938 6.35938 0 14.207 0H33.793C41.6406 0 48 6.35938 48 14.207V33.793C48 41.6406 41.6406 48 33.793 48H14.207C6.35938 48 0 41.6406 0 33.793V14.207Z" fill="var(--fill-0, #E6F0EB)" fill-opacity="0.3"/>
<path id="Vector_2" d="M11.5117 22.4688C10.3047 22.0664 9.55469 21.1836 9.11719 20.2578C8.3125 18.5625 9.37891 15.2656 10.332 12.9531C10.9922 11.3594 12.582 10.4063 14.3086 10.4023L33.707 10.375C35.4375 10.3711 37.0352 11.3281 37.6953 12.9258C38.6484 15.2383 39.7109 18.5273 38.9062 20.2188C38.4805 21.1172 37.7656 21.9727 36.625 22.3906C36.1289 22.2812 35.6016 22.0664 35.0508 21.7617C34.2305 21.3125 33.4258 20.6953 32.7109 20.0586C31.9961 19.4258 31.3867 18.7891 30.957 18.3125C30.7422 18.0703 30.5703 17.875 30.457 17.7344C30.3984 17.668 30.3555 17.6133 30.3281 17.5781C30.3125 17.5625 30.3047 17.5469 30.2969 17.5391L30.293 17.5352L30.2891 17.5313C30.082 17.2656 29.75 17.1328 29.418 17.1758C29.0859 17.2188 28.8008 17.4375 28.6719 17.7461C28.668 17.7461 28.668 17.75 28.668 17.75C28.6641 17.7539 28.6602 17.7656 28.6562 17.7773C28.6445 17.8047 28.625 17.8477 28.5977 17.9023C28.5469 18.0156 28.4648 18.1758 28.3555 18.3711C28.1406 18.7656 27.8164 19.2891 27.4023 19.8047C26.543 20.8711 25.4297 21.7344 24.1211 21.7344C22.8086 21.7344 21.6953 20.8789 20.8398 19.8203C20.4258 19.3086 20.1016 18.793 19.8867 18.4023C19.7773 18.207 19.6992 18.0469 19.6445 17.9375C19.6172 17.8828 19.5977 17.8398 19.5859 17.8125C19.582 17.8008 19.5781 17.7891 19.5742 17.7852C19.5742 17.7813 19.5742 17.7813 19.5703 17.7813C19.4375 17.4648 19.1445 17.25 18.8047 17.2109C18.4648 17.1719 18.1328 17.3203 17.9336 17.5977C17.9336 17.5977 17.9336 17.5977 18.7031 18.1523L17.9336 17.5977L17.9297 17.6016C17.9297 17.6016 17.9297 17.6055 17.9258 17.6094C17.918 17.6172 17.9102 17.6289 17.8984 17.6445C17.875 17.6797 17.8359 17.7305 17.7852 17.7969C17.6836 17.9258 17.5312 18.1172 17.3398 18.3477C16.957 18.8125 16.4102 19.4258 15.7578 20.043C15.1055 20.6641 14.3672 21.2656 13.6016 21.7188C12.8711 22.1484 12.1641 22.4141 11.5117 22.4688Z" fill="var(--fill-0, #066938)"/>
<path id="Vector_3" d="M19.5742 17.7812L18.7031 18.1523C19.5742 17.7812 19.5742 17.7812 19.5742 17.7812Z" fill="var(--fill-0, #066938)"/>
<path id="Vector_4" d="M36.4063 24.2812C35.6094 24.1328 34.8398 23.8125 34.1328 23.4219C33.1523 22.8789 32.2305 22.168 31.4531 21.4766C30.7695 20.8711 30.1758 20.2656 29.7305 19.7812C29.5039 20.1484 29.2188 20.5703 28.8789 20.9922C27.8984 22.2109 26.3008 23.6289 24.1211 23.6289C21.9453 23.6289 20.3477 22.2227 19.3672 21.0156C19.043 20.6133 18.7695 20.2148 18.5469 19.8594C18.1523 20.3164 17.6484 20.8633 17.0625 21.418C16.3477 22.0977 15.4961 22.8008 14.5625 23.3516C13.6797 23.875 12.6719 24.2852 11.6172 24.3594V35.7266C11.6172 36.7734 12.4648 37.625 13.5117 37.625H19.1562V31.1914C19.1562 29.7266 19.8086 28.5859 20.7773 27.832C21.7266 27.0977 22.9414 26.75 24.1133 26.7422C25.2891 26.7344 26.5078 27.0625 27.4609 27.7891C28.4375 28.5391 29.0898 29.6797 29.0898 31.1562V37.5859H34.5117C35.5586 37.5859 36.4063 36.7383 36.4063 35.6914V24.2812Z" fill="var(--fill-0, #066938)"/>
<path id="Vector_5" d="M27.1914 37.5898V31.1562C27.1914 30.2969 26.8359 29.6992 26.3086 29.293C25.7539 28.8711 24.9648 28.6328 24.1289 28.6367C23.293 28.6445 22.5 28.8945 21.9414 29.3281C21.4063 29.7422 21.0508 30.3477 21.0508 31.1914V37.6172L27.1914 37.5898Z" fill="var(--fill-0, #066938)"/>
<path id="Vector_6" d="M27.1914 37.5898V31.1562C27.1914 30.2969 26.8359 29.6992 26.3086 29.293C25.7539 28.8711 24.9648 28.6328 24.1289 28.6367C23.293 28.6445 22.5 28.8945 21.9414 29.3281C21.4063 29.7422 21.0508 30.3477 21.0508 31.1914V37.6172L27.1914 37.5898Z" fill="var(--fill-0, #FAC720)"/>
</g>
</svg>
